<svg xmlns="http://www.w3.org/2000/svg" width="91.778" height="91.779" viewBox="0 0 91.778 91.779"><g data-name="Group 242" transform="translate(-515.844 -73.882)" fill="#bf9650"><path data-name="Path 9215" d="M517.637 74.779a.9.9 0 1 1-.9-.9.9.9 0 0 1 .9.9z"/><path data-name="Path 9216" d="M525.136 74.779a.9.9 0 1 1-.9-.9.9.9 0 0 1 .9.9z"/><path data-name="Path 9217" d="M532.635 74.779a.9.9 0 1 1-.9-.9.9.9 0 0 1 .9.9z"/><path data-name="Path 9218" d="M540.134 74.779a.9.9 0 1 1-.9-.9.9.9 0 0 1 .9.9z"/><path data-name="Path 9219" d="M547.637 74.779a.9.9 0 1 1-.9-.9.9.9 0 0 1 .9.9z"/><path data-name="Path 9220" d="M555.131 74.779a.9.9 0 1 1-.9-.9.9.9 0 0 1 .9.9z"/><circle data-name="Ellipse 22" cx=".896" cy=".896" r=".896" transform="translate(560.837 73.882)"/><path data-name="Path 9221" d="M517.637 82.278a.9.9 0 1 1-.9-.9.9.9 0 0 1 .9.9z"/><path data-name="Path 9222" d="M525.136 82.278a.9.9 0 1 1-.9-.9.9.9 0 0 1 .9.9z"/><path data-name="Path 9223" d="M532.635 82.278a.9.9 0 1 1-.9-.9.9.9 0 0 1 .9.9z"/><path data-name="Path 9224" d="M540.134 82.278a.9.9 0 1 1-.9-.9.9.9 0 0 1 .9.9z"/><path data-name="Path 9225" d="M547.637 82.278a.9.9 0 1 1-.9-.9.9.9 0 0 1 .9.9z"/><path data-name="Path 9226" d="M555.131 82.278a.9.9 0 1 1-.9-.9.9.9 0 0 1 .9.9z"/><path data-name="Path 9227" d="M562.629 82.278a.9.9 0 1 1-.9-.9.9.9 0 0 1 .9.9z"/><path data-name="Path 9228" d="M517.637 89.776a.9.9 0 1 1-.9-.9.9.9 0 0 1 .9.9z"/><path data-name="Path 9229" d="M525.136 89.776a.9.9 0 1 1-.9-.9.9.9 0 0 1 .9.9z"/><path data-name="Path 9230" d="M532.635 89.776a.9.9 0 1 1-.9-.9.9.9 0 0 1 .9.9z"/><path data-name="Path 9231" d="M540.134 89.776a.9.9 0 1 1-.9-.9.9.9 0 0 1 .9.9z"/><path data-name="Path 9232" d="M547.637 89.776a.9.9 0 1 1-.9-.9.9.9 0 0 1 .9.9z"/><path data-name="Path 9233" d="M555.131 89.776a.9.9 0 1 1-.9-.9.9.9 0 0 1 .9.9z"/><circle data-name="Ellipse 23" cx=".896" cy=".896" r=".896" transform="translate(560.837 88.88)"/><path data-name="Path 9234" d="M517.637 97.276a.9.9 0 1 1-.9-.9.9.9 0 0 1 .9.9z"/><path data-name="Path 9235" d="M525.136 97.276a.9.9 0 1 1-.9-.9.9.9 0 0 1 .9.9z"/><path data-name="Path 9236" d="M532.635 97.276a.9.9 0 1 1-.9-.9.9.9 0 0 1 .9.9z"/><path data-name="Path 9237" d="M540.134 97.276a.9.9 0 1 1-.9-.9.9.9 0 0 1 .9.9z"/><path data-name="Path 9238" d="M547.637 97.276a.9.9 0 1 1-.9-.9.9.9 0 0 1 .9.9z"/><path data-name="Path 9239" d="M555.131 97.276a.9.9 0 1 1-.9-.9.9.9 0 0 1 .9.9z"/><path data-name="Path 9240" d="M562.629 97.276a.9.9 0 1 1-.9-.9.9.9 0 0 1 .9.9z"/><path data-name="Path 9241" d="M517.637 104.774a.9.9 0 1 1-.9-.9.9.9 0 0 1 .9.9z"/><path data-name="Path 9242" d="M525.136 104.774a.9.9 0 1 1-.9-.9.9.9 0 0 1 .9.9z"/><path data-name="Path 9243" d="M532.635 104.774a.9.9 0 1 1-.9-.9.9.9 0 0 1 .9.9z"/><path data-name="Path 9244" d="M540.134 104.774a.9.9 0 1 1-.9-.9.9.9 0 0 1 .9.9z"/><path data-name="Path 9245" d="M547.637 104.774a.9.9 0 1 1-.9-.9.9.9 0 0 1 .9.9z"/><path data-name="Path 9246" d="M555.131 104.774a.9.9 0 1 1-.9-.9.9.9 0 0 1 .9.9z"/><path data-name="Path 9247" d="M562.629 104.774a.9.9 0 1 1-.9-.9.9.9 0 0 1 .9.9z"/><path data-name="Path 9248" d="M517.637 112.273a.9.9 0 1 1-.9-.9.9.9 0 0 1 .9.9z"/><path data-name="Path 9249" d="M525.136 112.273a.9.9 0 1 1-.9-.9.9.9 0 0 1 .9.9z"/><path data-name="Path 9250" d="M532.635 112.273a.9.9 0 1 1-.9-.9.9.9 0 0 1 .9.9z"/><path data-name="Path 9251" d="M540.134 112.273a.9.9 0 1 1-.9-.9.9.9 0 0 1 .9.9z"/><path data-name="Path 9252" d="M547.637 112.273a.9.9 0 1 1-.9-.9.9.9 0 0 1 .9.9z"/><path data-name="Path 9253" d="M555.131 112.273a.9.9 0 1 1-.9-.9.9.9 0 0 1 .9.9z"/><path data-name="Path 9254" d="M562.629 112.273a.9.9 0 1 1-.9-.9.9.9 0 0 1 .9.9z"/><path data-name="Path 9255" d="M517.637 119.771a.9.9 0 1 1-.9-.9.9.9 0 0 1 .9.9z"/><path data-name="Path 9256" d="M525.136 119.771a.9.9 0 1 1-.9-.9.9.9 0 0 1 .9.9z"/><path data-name="Path 9257" d="M532.635 119.771a.9.9 0 1 1-.9-.9.9.9 0 0 1 .9.9z"/><path data-name="Path 9258" d="M540.134 119.771a.9.9 0 1 1-.9-.9.9.9 0 0 1 .9.9z"/><path data-name="Path 9259" d="M547.637 119.771a.9.9 0 1 1-.9-.9.9.9 0 0 1 .9.9z"/><path data-name="Path 9260" d="M555.131 119.771a.9.9 0 1 1-.9-.9.9.9 0 0 1 .9.9z"/><path data-name="Path 9261" d="M562.629 119.771a.9.9 0 1 1-.9-.9.9.9 0 0 1 .9.9z"/><path data-name="Path 9262" d="M570.128 74.779a.9.9 0 1 1-.9-.9.9.9 0 0 1 .9.9z"/><path data-name="Path 9263" d="M577.627 74.779a.9.9 0 1 1-.9-.9.9.9 0 0 1 .9.9z"/><path data-name="Path 9264" d="M585.126 74.779a.9.9 0 1 1-.9-.9.9.9 0 0 1 .9.9z"/><path data-name="Path 9265" d="M592.625 74.779a.9.9 0 1 1-.9-.9.9.9 0 0 1 .9.9z"/><path data-name="Path 9266" d="M600.126 74.779a.9.9 0 1 1-.9-.9.9.9 0 0 1 .9.9z"/><path data-name="Path 9267" d="M607.622 74.779a.9.9 0 1 1-.9-.9.9.9 0 0 1 .9.9z"/><path data-name="Path 9268" d="M570.128 82.278a.9.9 0 1 1-.9-.9.9.9 0 0 1 .9.9z"/><path data-name="Path 9269" d="M577.627 82.278a.9.9 0 1 1-.9-.9.9.9 0 0 1 .9.9z"/><path data-name="Path 9270" d="M585.126 82.278a.9.9 0 1 1-.9-.9.9.9 0 0 1 .9.9z"/><path data-name="Path 9271" d="M592.625 82.278a.9.9 0 1 1-.9-.9.9.9 0 0 1 .9.9z"/><path data-name="Path 9272" d="M600.126 82.278a.9.9 0 1 1-.9-.9.9.9 0 0 1 .9.9z"/><path data-name="Path 9273" d="M607.622 82.278a.9.9 0 1 1-.9-.9.9.9 0 0 1 .9.9z"/><path data-name="Path 9274" d="M570.128 89.776a.9.9 0 1 1-.9-.9.9.9 0 0 1 .9.9z"/><path data-name="Path 9275" d="M577.627 89.776a.9.9 0 1 1-.9-.9.9.9 0 0 1 .9.9z"/><path data-name="Path 9276" d="M585.126 89.776a.9.9 0 1 1-.9-.9.9.9 0 0 1 .9.9z"/><path data-name="Path 9277" d="M592.625 89.776a.9.9 0 1 1-.9-.9.9.9 0 0 1 .9.9z"/><path data-name="Path 9278" d="M600.126 89.776a.9.9 0 1 1-.9-.9.9.9 0 0 1 .9.9z"/><path data-name="Path 9279" d="M607.622 89.776a.9.9 0 1 1-.9-.9.9.9 0 0 1 .9.9z"/><path data-name="Path 9280" d="M570.128 97.276a.9.9 0 1 1-.9-.9.9.9 0 0 1 .9.9z"/><path data-name="Path 9281" d="M577.627 97.276a.9.9 0 1 1-.9-.9.9.9 0 0 1 .9.9z"/><path data-name="Path 9282" d="M585.126 97.276a.9.9 0 1 1-.9-.9.9.9 0 0 1 .9.9z"/><path data-name="Path 9283" d="M592.625 97.276a.9.9 0 1 1-.9-.9.9.9 0 0 1 .9.9z"/><path data-name="Path 9284" d="M600.126 97.276a.9.9 0 1 1-.9-.9.9.9 0 0 1 .9.9z"/><path data-name="Path 9285" d="M607.622 97.276a.9.9 0 1 1-.9-.9.9.9 0 0 1 .9.9z"/><path data-name="Path 9286" d="M570.128 104.774a.9.9 0 1 1-.9-.9.9.9 0 0 1 .9.9z"/><path data-name="Path 9287" d="M577.627 104.774a.9.9 0 1 1-.9-.9.9.9 0 0 1 .9.9z"/><path data-name="Path 9288" d="M585.126 104.774a.9.9 0 1 1-.9-.9.9.9 0 0 1 .9.9z"/><path data-name="Path 9289" d="M592.625 104.774a.9.9 0 1 1-.9-.9.9.9 0 0 1 .9.9z"/><path data-name="Path 9290" d="M600.126 104.774a.9.9 0 1 1-.9-.9.9.9 0 0 1 .9.9z"/><path data-name="Path 9291" d="M607.622 104.774a.9.9 0 1 1-.9-.9.9.9 0 0 1 .9.9z"/><path data-name="Path 9292" d="M570.128 112.273a.9.9 0 1 1-.9-.9.9.9 0 0 1 .9.9z"/><path data-name="Path 9293" d="M577.627 112.273a.9.9 0 1 1-.9-.9.9.9 0 0 1 .9.9z"/><path data-name="Path 9294" d="M585.126 112.273a.9.9 0 1 1-.9-.9.9.9 0 0 1 .9.9z"/><path data-name="Path 9295" d="M592.625 112.273a.9.9 0 1 1-.9-.9.9.9 0 0 1 .9.9z"/><path data-name="Path 9296" d="M600.126 112.273a.9.9 0 1 1-.9-.9.9.9 0 0 1 .9.9z"/><path data-name="Path 9297" d="M607.622 112.273a.9.9 0 1 1-.9-.9.9.9 0 0 1 .9.9z"/><path data-name="Path 9298" d="M570.128 119.771a.9.9 0 1 1-.9-.9.9.9 0 0 1 .9.9z"/><path data-name="Path 9299" d="M577.627 119.771a.9.9 0 1 1-.9-.9.9.9 0 0 1 .9.9z"/><path data-name="Path 9300" d="M585.126 119.771a.9.9 0 1 1-.9-.9.9.9 0 0 1 .9.9z"/><path data-name="Path 9301" d="M592.625 119.771a.9.9 0 1 1-.9-.9.9.9 0 0 1 .9.9z"/><path data-name="Path 9302" d="M600.126 119.771a.9.9 0 1 1-.9-.9.9.9 0 0 1 .9.9z"/><path data-name="Path 9303" d="M607.622 119.771a.9.9 0 1 1-.9-.9.9.9 0 0 1 .9.9z"/><path data-name="Path 9304" d="M517.637 127.27a.9.9 0 1 1-.9-.9.9.9 0 0 1 .9.9z"/><path data-name="Path 9305" d="M525.136 127.27a.9.9 0 1 1-.9-.9.9.9 0 0 1 .9.9z"/><path data-name="Path 9306" d="M532.635 127.27a.9.9 0 1 1-.9-.9.9.9 0 0 1 .9.9z"/><path data-name="Path 9307" d="M540.134 127.27a.9.9 0 1 1-.9-.9.9.9 0 0 1 .9.9z"/><path data-name="Path 9308" d="M547.637 127.27a.9.9 0 1 1-.9-.9.9.9 0 0 1 .9.9z"/><path data-name="Path 9309" d="M555.131 127.27a.9.9 0 1 1-.9-.9.9.9 0 0 1 .9.9z"/><circle data-name="Ellipse 24" cx=".896" cy=".896" r=".896" transform="translate(560.837 126.373)"/><path data-name="Path 9310" d="M517.637 134.768a.9.9 0 1 1-.9-.9.9.9 0 0 1 .9.9z"/><path data-name="Path 9311" d="M525.136 134.768a.9.9 0 1 1-.9-.9.9.9 0 0 1 .9.9z"/><path data-name="Path 9312" d="M532.635 134.768a.9.9 0 1 1-.9-.9.9.9 0 0 1 .9.9z"/><path data-name="Path 9313" d="M540.134 134.768a.9.9 0 1 1-.9-.9.9.9 0 0 1 .9.9z"/><path data-name="Path 9314" d="M547.637 134.768a.9.9 0 1 1-.9-.9.9.9 0 0 1 .9.9z"/><path data-name="Path 9315" d="M555.131 134.768a.9.9 0 1 1-.9-.9.9.9 0 0 1 .9.9z"/><circle data-name="Ellipse 25" cx=".896" cy=".896" r=".896" transform="translate(560.837 133.872)"/><path data-name="Path 9316" d="M517.637 142.268a.9.9 0 1 1-.9-.9.9.9 0 0 1 .9.9z"/><path data-name="Path 9317" d="M525.136 142.268a.9.9 0 1 1-.9-.9.9.9 0 0 1 .9.9z"/><path data-name="Path 9318" d="M532.635 142.268a.9.9 0 1 1-.9-.9.9.9 0 0 1 .9.9z"/><path data-name="Path 9319" d="M540.134 142.268a.9.9 0 1 1-.9-.9.9.9 0 0 1 .9.9z"/><path data-name="Path 9320" d="M547.637 142.268a.9.9 0 1 1-.9-.9.9.9 0 0 1 .9.9z"/><path data-name="Path 9321" d="M555.131 142.268a.9.9 0 1 1-.9-.9.9.9 0 0 1 .9.9z"/><path data-name="Path 9322" d="M562.629 142.268a.9.9 0 1 1-.9-.9.9.9 0 0 1 .9.9z"/><path data-name="Path 9323" d="M517.637 149.765a.9.9 0 1 1-.9-.9.9.9 0 0 1 .9.9z"/><path data-name="Path 9324" d="M525.136 149.765a.9.9 0 1 1-.9-.9.9.9 0 0 1 .9.9z"/><path data-name="Path 9325" d="M532.635 149.765a.9.9 0 1 1-.9-.9.9.9 0 0 1 .9.9z"/><path data-name="Path 9326" d="M540.134 149.765a.9.9 0 1 1-.9-.9.9.9 0 0 1 .9.9z"/><path data-name="Path 9327" d="M547.637 149.765a.9.9 0 1 1-.9-.9.9.9 0 0 1 .9.9z"/><path data-name="Path 9328" d="M555.131 149.765a.9.9 0 1 1-.9-.9.9.9 0 0 1 .9.9z"/><path data-name="Path 9329" d="M562.629 149.765a.9.9 0 1 1-.9-.9.9.9 0 0 1 .9.9z"/><path data-name="Path 9330" d="M517.637 157.265a.9.9 0 1 1-.9-.9.9.9 0 0 1 .9.9z"/><path data-name="Path 9331" d="M525.136 157.265a.9.9 0 1 1-.9-.9.9.9 0 0 1 .9.9z"/><path data-name="Path 9332" d="M532.635 157.265a.9.9 0 1 1-.9-.9.9.9 0 0 1 .9.9z"/><path data-name="Path 9333" d="M540.134 157.265a.9.9 0 1 1-.9-.9.9.9 0 0 1 .9.9z"/><path data-name="Path 9334" d="M547.637 157.265a.9.9 0 1 1-.9-.9.9.9 0 0 1 .9.9z"/><path data-name="Path 9335" d="M555.131 157.265a.9.9 0 1 1-.9-.9.9.9 0 0 1 .9.9z"/><path data-name="Path 9336" d="M562.629 157.265a.9.9 0 1 1-.9-.9.9.9 0 0 1 .9.9z"/><path data-name="Path 9337" d="M517.637 164.764a.9.9 0 1 1-.9-.9.9.9 0 0 1 .9.9z"/><path data-name="Path 9338" d="M525.136 164.764a.9.9 0 1 1-.9-.9.9.9 0 0 1 .9.9z"/><path data-name="Path 9339" d="M532.635 164.764a.9.9 0 1 1-.9-.9.9.9 0 0 1 .9.9z"/><path data-name="Path 9340" d="M540.134 164.764a.9.9 0 1 1-.9-.9.9.9 0 0 1 .9.9z"/><path data-name="Path 9341" d="M547.637 164.764a.9.9 0 1 1-.9-.9.9.9 0 0 1 .9.9z"/><path data-name="Path 9342" d="M555.131 164.764a.9.9 0 1 1-.9-.9.9.9 0 0 1 .9.9z"/><circle data-name="Ellipse 26" cx=".896" cy=".896" r=".896" transform="translate(560.837 163.867)"/><path data-name="Path 9343" d="M570.128 127.27a.9.9 0 1 1-.9-.9.9.9 0 0 1 .9.9z"/><path data-name="Path 9344" d="M577.627 127.27a.9.9 0 1 1-.9-.9.9.9 0 0 1 .9.9z"/><path data-name="Path 9345" d="M585.126 127.27a.9.9 0 1 1-.9-.9.9.9 0 0 1 .9.9z"/><path data-name="Path 9346" d="M592.625 127.27a.9.9 0 1 1-.9-.9.9.9 0 0 1 .9.9z"/><path data-name="Path 9347" d="M600.126 127.27a.9.9 0 1 1-.9-.9.9.9 0 0 1 .9.9z"/><path data-name="Path 9348" d="M607.622 127.27a.9.9 0 1 1-.9-.9.9.9 0 0 1 .9.9z"/><path data-name="Path 9349" d="M570.128 134.768a.9.9 0 1 1-.9-.9.9.9 0 0 1 .9.9z"/><path data-name="Path 9350" d="M577.627 134.768a.9.9 0 1 1-.9-.9.9.9 0 0 1 .9.9z"/><path data-name="Path 9351" d="M585.126 134.768a.9.9 0 1 1-.9-.9.9.9 0 0 1 .9.9z"/><path data-name="Path 9352" d="M592.625 134.768a.9.9 0 1 1-.9-.9.9.9 0 0 1 .9.9z"/><path data-name="Path 9353" d="M600.126 134.768a.9.9 0 1 1-.9-.9.9.9 0 0 1 .9.9z"/><path data-name="Path 9354" d="M607.622 134.768a.9.9 0 1 1-.9-.9.9.9 0 0 1 .9.9z"/><path data-name="Path 9355" d="M570.128 142.268a.9.9 0 1 1-.9-.9.9.9 0 0 1 .9.9z"/><path data-name="Path 9356" d="M577.627 142.268a.9.9 0 1 1-.9-.9.9.9 0 0 1 .9.9z"/><path data-name="Path 9357" d="M585.126 142.268a.9.9 0 1 1-.9-.9.9.9 0 0 1 .9.9z"/><path data-name="Path 9358" d="M592.625 142.268a.9.9 0 1 1-.9-.9.9.9 0 0 1 .9.9z"/><path data-name="Path 9359" d="M600.126 142.268a.9.9 0 1 1-.9-.9.9.9 0 0 1 .9.9z"/><path data-name="Path 9360" d="M607.622 142.268a.9.9 0 1 1-.9-.9.9.9 0 0 1 .9.9z"/><path data-name="Path 9361" d="M570.128 149.765a.9.9 0 1 1-.9-.9.9.9 0 0 1 .9.9z"/><path data-name="Path 9362" d="M577.627 149.765a.9.9 0 1 1-.9-.9.9.9 0 0 1 .9.9z"/><path data-name="Path 9363" d="M585.126 149.765a.9.9 0 1 1-.9-.9.9.9 0 0 1 .9.9z"/><path data-name="Path 9364" d="M592.625 149.765a.9.9 0 1 1-.9-.9.9.9 0 0 1 .9.9z"/><path data-name="Path 9365" d="M600.126 149.765a.9.9 0 1 1-.9-.9.9.9 0 0 1 .9.9z"/><path data-name="Path 9366" d="M607.622 149.765a.9.9 0 1 1-.9-.9.9.9 0 0 1 .9.9z"/><path data-name="Path 9367" d="M570.128 157.265a.9.9 0 1 1-.9-.9.9.9 0 0 1 .9.9z"/><path data-name="Path 9368" d="M577.627 157.265a.9.9 0 1 1-.9-.9.9.9 0 0 1 .9.9z"/><path data-name="Path 9369" d="M585.126 157.265a.9.9 0 1 1-.9-.9.9.9 0 0 1 .9.9z"/><path data-name="Path 9370" d="M592.625 157.265a.9.9 0 1 1-.9-.9.9.9 0 0 1 .9.9z"/><path data-name="Path 9371" d="M600.126 157.265a.9.9 0 1 1-.9-.9.9.9 0 0 1 .9.9z"/><path data-name="Path 9372" d="M607.622 157.265a.9.9 0 1 1-.9-.9.9.9 0 0 1 .9.9z"/><path data-name="Path 9373" d="M570.128 164.764a.9.9 0 1 1-.9-.9.9.9 0 0 1 .9.9z"/><path data-name="Path 9374" d="M577.627 164.764a.9.9 0 1 1-.9-.9.9.9 0 0 1 .9.9z"/><path data-name="Path 9375" d="M585.126 164.764a.9.9 0 1 1-.9-.9.9.9 0 0 1 .9.9z"/><path data-name="Path 9376" d="M592.625 164.764a.9.9 0 1 1-.9-.9.9.9 0 0 1 .9.9z"/><path data-name="Path 9377" d="M600.126 164.764a.9.9 0 1 1-.9-.9.9.9 0 0 1 .9.9z"/><path data-name="Path 9378" d="M607.622 164.764a.9.9 0 1 1-.9-.9.9.9 0 0 1 .9.9z"/></g></svg>