<svg xmlns="http://www.w3.org/2000/svg" width="48.059" height="59.124" viewBox="0 0 48.059 59.124"><g data-name="Group 240"><g data-name="Group 235"><path data-name="Path 9210" d="M48.059 49.343l-2.054.476h-36.7V1.387L9.781 0h17.927v31.415h20.349zm-37.127-1.15h35.5V33.04H26.085V1.625H10.932z" fill="#8d7143"/></g><g data-name="Group 236"><path data-name="Path 9211" d="M0 59.124V9.783L9.783 0l1.149.763v48.58L1.824 58.45zm1.625-48.668V56.35l7.682-7.68V2.77z" fill="#8d7143"/></g><g data-name="Group 237"><path data-name="Path 9212" d="M38.276 59.124H0l.756-1.9 9.027-9.026h37.431l.845 1.15zm-35.5-1.625h34.829l7.681-7.68h-34.83z" fill="#8d7143"/></g><g data-name="Group 238"><path data-name="Path 9213" d="M2.774 57.499h34.829l7.681-7.68H10.456z" fill="#bf9650"/></g><g data-name="Group 239"><path data-name="Path 9214" d="M1.625 10.456V56.35l7.682-7.68V2.77z" fill="#bf9650"/></g></g></svg>